<svg width="800" height="800" viewBox="0 0 32 32" xmlns="http://www.w3.org/2000/svg" fill="green"><path d="M11.766 6.93c.004.352.29.636.643.636h.017a.63.63 0 0 0 .448-.185.651.651 0 1 0-.916-.918l-.001.001a.64.64 0 0 0-.192.458zm7.136.008a.65.65 0 0 0 1.3-.015.65.65 0 0 0-1.109-.458.64.64 0 0 0-.192.458v.016zm-6.711-3.27-1.294-2.234a.27.27 0 0 1 0-.275l-.001.001a.3.3 0 0 1 .232-.137h.001a.27.27 0 0 1 .232.135l.001.001 1.31 2.266c.975-.449 2.116-.711 3.319-.711s2.343.262 3.369.732l-.05-.021 1.302-2.266a.273.273 0 0 1 .465.275l.001-.002-1.286 2.234c2.032 1.133 3.476 3.112 3.859 5.449l.006.044-15.332-.002a7.66 7.66 0 0 1 3.826-5.471l.039-.02zM4.282 7.285v.024a1.873 1.873 0 0 0 1.855 1.856h.001l.163-.004h1.408a8.23 8.23 0 0 1 2.05-4.357l-.006.007H6.14a2.49 2.49 0 0 0-2.391 1.851l-.004.017a.616.616 0 0 1 .536.606zm21.827 7.264h-1.036a.13.13 0 0 0-.129.129v16.111c0 .068.053.124.12.128h1.053a2.235 2.235 0 0 0 2.226-2.234V12.315c0 1.234-1 2.234-2.234 2.234m-10.163 8.418h-.002a.36.36 0 0 0-.317.192l-.001.002-1.763 3.787h4.21l-1.817-3.785a.35.35 0 0 0-.308-.196zm1.282-6.585v-.009c0-.756-.61-1.369-1.364-1.374h-.001c-.382 0-.728.153-.981.402a1.374 1.374 0 0 0 .961 2.346h.01c.755 0 1.369-.61 1.374-1.364zm5.289 12.767a1.215 1.215 0 0 1-1.471 1.68l.009.002c-.03-.01-.057-.026-.087-.038a1.2 1.2 0 0 1-.287-.167l.003.002a1 1 0 0 1-.091-.075l.001.001a1.2 1.2 0 0 1-.259-.337l-.003-.007-3.512-7.312a.97.97 0 0 0-.873-.554h-.003a.99.99 0 0 0-.881.549l-.003.006-3.423 7.352a1.22 1.22 0 0 1-.991.723h-.005q-.19 0-.372-.028l.014.002a1.3 1.3 0 0 1-.185-.059l.008.003c-.038-.014-.076-.025-.112-.042a1 1 0 0 1-.177-.113l.003.002c-.027-.019-.057-.034-.083-.056a1.21 1.21 0 0 1-.296-1.466l-.003.007 5.135-11.049a2.241 2.241 0 0 1 .968-4.017l.013-.002v-1.424c0-.158.083-.297.207-.375l.002-.001a.43.43 0 0 1 .444.001l-.002-.001a.44.44 0 0 1 .209.376v.019-.001 1.446l.016.008a2.26 2.26 0 0 1 1.605 1.705l.003.015a2.22 2.22 0 0 1-.799 2.222l-.005.004 4.229 8.799zm2.555-15.225a.753.753 0 0 0-.752.753v12.27h-2.169l-4.162-8.66a2.89 2.89 0 0 0-.937-4.517l-.018-.008v-1.037c0-.379-.2-.712-.5-.898l-.005-.003a1.054 1.054 0 0 0-1.603.951v-.002.9a2.87 2.87 0 0 0-1.891 2.696c0 .758.294 1.448.775 1.961l-.001-.002-4.005 8.619H6.133a2.49 2.49 0 0 1-2.475-2.482V7.285v.013a2.49 2.49 0 0 0 2.478 2.491h.001q.083 0 .165-.005h18.401s3.163-.273 3.571 1.921a.617.617 0 0 0-.555.61 1.615 1.615 0 0 1-1.615 1.61z"/></svg>